<?xml version="1.0" standalone="no"?>
<!DOCTYPE svg PUBLIC "-//W3C//DTD SVG 1.1//EN" "http://www.w3.org/Graphics/SVG/1.1/DTD/svg11.dtd" >
<svg xmlns="http://www.w3.org/2000/svg">
<metadata></metadata>
<defs>
<font id="MyriadProCondensedBold" horiz-adv-x="872" >
<font-face units-per-em="2048" ascent="1536" descent="-512" />
<missing-glyph horiz-adv-x="325" />
<glyph horiz-adv-x="2048" />
<glyph horiz-adv-x="2048" />
<glyph unicode="&#xd;" horiz-adv-x="2048" />
<glyph unicode=" "  horiz-adv-x="325" />
<glyph unicode="&#x09;" horiz-adv-x="325" />
<glyph unicode="&#xa0;" horiz-adv-x="325" />
<glyph unicode="!" horiz-adv-x="483" d="M88 147q0 73 45.5 119.5t108.5 46.5q67 0 110 -46t43 -120q0 -71 -41.5 -117t-109.5 -46h-2q-65 0 -109.5 46.5t-44.5 116.5zM94 1380h295l-33 -931h-229z" />
<glyph unicode="&#x22;" horiz-adv-x="677" d="M66 1401h217l-41 -533h-133zM395 1401h217l-43 -533h-131z" />
<glyph unicode="#" d="M31 399v154h168l28 235h-153v154h174l47 389h151l-47 -389h146l49 389h151l-49 -389h146v-154h-164l-31 -235h154v-154h-172l-51 -399h-154l51 399h-145l-49 -399h-154l51 399h-147zM350 553h146l28 235h-145z" />
<glyph unicode="$" d="M113 88l41 211q96 -57 213 -57q72 0 111.5 37.5t39.5 97.5q0 61 -38 109t-120 100q-128 79 -186.5 160t-58.5 196q0 116 65 206t180 128v209h175v-189q109 0 202 -51l-45 -205q-89 52 -178 52q-69 0 -108 -36t-39 -91q0 -54 32.5 -93t135.5 -102q126 -75 179.5 -165 t53.5 -204q0 -135 -71 -226.5t-191 -121.5v-227h-174v209q-128 3 -219 53z" />
<glyph unicode="%" horiz-adv-x="1345" d="M37 934q0 111 30.5 203.5t93 151.5t146.5 59h2q70 0 123 -36.5t81.5 -97.5t42 -128.5t13.5 -141.5q0 -199 -77 -305.5t-187 -106.5q-89 0 -151.5 60.5t-89.5 148.5t-27 193zM219 942q-3 -268 88 -268q45 0 64.5 66.5t19.5 197.5q0 129 -18.5 198.5t-65.5 69.5h-2 q-42 0 -64 -69t-22 -195zM244 -20l717 1370h139l-717 -1370h-139zM776 391q0 110 30.5 202t93.5 151t147 59h2q70 0 123 -36.5t81.5 -97t42 -128t13.5 -140.5q0 -200 -77.5 -306.5t-187.5 -106.5q-67 0 -120 34.5t-84.5 92.5t-47.5 128.5t-16 147.5zM958 397 q-3 -266 89 -266q83 0 83 264q0 129 -18.5 198t-64.5 69h-3q-86 0 -86 -265z" />
<glyph unicode="&#x26;" horiz-adv-x="1085" d="M39 371q0 240 217 379v4q-102 139 -102 299q0 146 94.5 245t251.5 99q133 0 218 -86t85 -224q0 -105 -49.5 -191.5t-188.5 -182.5v-8q118 -184 203 -293q53 98 61 323h228q-14 -145 -60 -275.5t-114 -211.5q90 -118 194 -248h-293q-41 56 -65 90q-119 -106 -299 -106 q-175 0 -278 110t-103 277zM285 403q0 -92 51 -156.5t133 -64.5h2q85 0 141 66q-71 89 -250 346q-77 -77 -77 -191zM393 1063q0 -102 68 -205q119 94 119 217q0 36 -6.5 66t-27 54t-54.5 24h-3q-44 0 -70 -44.5t-26 -111.5z" />
<glyph unicode="'" horiz-adv-x="348" d="M66 1401h217l-41 -533h-133z" />
<glyph unicode="(" horiz-adv-x="528" d="M66 584q6 278 72 489.5t163 343.5h193q-218 -341 -218 -835q0 -474 218 -828h-193q-99 133 -167 345t-68 485z" />
<glyph unicode=")" horiz-adv-x="528" d="M35 -246q217 343 217 836q0 484 -217 827h192q101 -131 168.5 -339.5t67.5 -487.5q-6 -281 -71.5 -490t-164.5 -346h-192z" />
<glyph unicode="*" horiz-adv-x="788" d="M31 922v188l278 -53l6 6l-200 235l168 97l108 -289h6l105 291l168 -94l-203 -240l2 -6l289 53v-188l-291 53l-2 -6l205 -232l-172 -96l-109 295l-4 -6l-117 -291l-153 96l202 244l-4 2z" />
<glyph unicode="+" horiz-adv-x="1220" d="M82 463v168h442v459h172v-459h443v-168h-443v-463h-172v463h-442z" />
<glyph unicode="," horiz-adv-x="477" d="M20 -256q103 296 138 545l272 20q-116 -349 -237 -547z" />
<glyph unicode="-" horiz-adv-x="530" d="M61 469v193h408v-193h-408z" />
<glyph unicode="." horiz-adv-x="477" d="M98 162q0 75 47.5 126.5t110.5 51.5q67 0 111.5 -48.5t44.5 -129.5t-43.5 -129.5t-114.5 -48.5h-2q-64 0 -109 49.5t-45 128.5z" />
<glyph unicode="/" horiz-adv-x="573" d="M-45 -82l479 1479h176l-481 -1479h-174z" />
<glyph unicode="0" d="M47 659q0 147 24 270t71.5 217.5t125 148t178.5 53.5q89 0 157 -40.5t109.5 -105.5t67.5 -156t35.5 -181t9.5 -193q0 -174 -30 -308t-83.5 -215.5t-122.5 -123t-151 -41.5h-2q-85 0 -152 37.5t-111 101t-73 151.5t-41 183t-12 202zM315 666q-3 -233 27 -343t96 -110h2 q62 0 87.5 109t25.5 344q0 226 -25.5 339t-87.5 113q-128 0 -125 -452z" />
<glyph unicode="1" d="M92 1174l305 157h236v-1331h-266v1079h-5l-225 -116z" />
<glyph unicode="2" d="M49 0v180l133 170q66 84 100.5 129.5t82.5 116.5t71.5 120.5t41.5 110t18 115.5q0 82 -44.5 132t-125.5 50q-95 0 -201 -67l-47 209q52 33 132.5 57.5t164.5 24.5t151.5 -22t110.5 -58.5t71 -87t40 -104t12 -113.5q0 -72 -18.5 -145t-45.5 -132.5t-71 -126t-82 -115 t-92 -110.5l-80 -94v-4h407v-236h-729z" />
<glyph unicode="3" d="M49 43l39 211q87 -51 199 -51q95 0 147.5 52.5t52.5 139.5q0 105 -69.5 158t-179.5 53h-37v197h26q40 1 77 10t72 28t56 53.5t21 80.5q0 71 -42.5 112t-113.5 41q-84 0 -168 -53l-35 203q45 29 120.5 49.5t154.5 20.5q112 0 193 -45.5t119 -117.5t38 -159q0 -99 -51 -178 t-140 -121v-4q102 -34 165 -121.5t63 -216.5q0 -77 -29.5 -148.5t-84 -128t-140.5 -90.5t-191 -34q-157 0 -262 59z" />
<glyph unicode="4" d="M23 317v185l436 829h258v-799h133v-215h-133v-317h-238v317h-456zM250 532h229v273q0 44 15 219h-9q-46 -109 -92 -207l-143 -280v-5z" />
<glyph unicode="5" d="M57 37l41 213q92 -47 191 -47t158 60.5t59 166.5q0 64 -23 111.5t-64 74.5t-91 39.5t-111 12.5q-67 0 -94 -4l74 667h551v-233h-353l-30 -238h41q54 -2 126 -27t123 -73q115 -112 115 -305q0 -131 -54 -237t-161 -170t-248 -64q-69 0 -139 15.5t-111 37.5z" />
<glyph unicode="6" d="M47 532q0 388 219 621q62 70 150.5 117t175.5 63q47 9 135 15v-218q-57 -3 -111 -14q-124 -28 -197 -122.5t-100 -231.5h7q79 106 204 106q136 0 218.5 -112.5t82.5 -300.5q0 -90 -23 -172.5t-68 -150t-119 -108t-168 -40.5q-188 0 -297 149.5t-109 398.5zM319 469 q0 -131 35 -211t95 -80h2q116 0 116 279q-2 93 -33 156t-92 63q-71 0 -108 -90q-15 -26 -15 -117z" />
<glyph unicode="7" d="M80 1096v235h725v-176l-418 -1155h-262l410 1092v4h-455z" />
<glyph unicode="8" d="M41 346q0 117 55.5 206.5t145.5 147.5v5q-81 53 -122.5 131.5t-41.5 160.5q0 158 109 254.5t266 96.5h2q146 0 245 -91t99 -237q0 -78 -39.5 -156.5t-134.5 -138.5v-4q95 -52 149.5 -142t54.5 -206q0 -179 -114.5 -284t-284.5 -105q-171 0 -280 100t-109 262zM303 377 q0 -91 36 -152t101 -61h2q61 0 95 55t34 143q0 87 -44 150t-109 96q-53 -36 -84 -96.5t-31 -134.5zM334 1006q0 -132 131 -201q42 23 67 76.5t25 113.5q0 74 -26 123t-80 49h-2q-55 0 -85 -47t-30 -114z" />
<glyph unicode="9" d="M49 881q0 87 26.5 169.5t75.5 149.5t125.5 107.5t169.5 40.5q181 0 279 -149t98 -398q0 -213 -59.5 -375t-159.5 -268q-128 -137 -328 -168q-43 -6 -124 -6v223q66 0 122 10q91 18 156 80q95 92 129 268h-6q-75 -82 -191 -82q-133 0 -223 109.5t-90 288.5zM313 903 q2 -102 34 -168.5t91 -66.5q34 0 63 20.5t40 48.5q12 32 12 142q0 130 -33 202t-88 72h-2q-53 0 -85.5 -66t-31.5 -184z" />
<glyph unicode=":" horiz-adv-x="477" d="M102 154q0 70 45 120t107 50q65 0 108.5 -47.5t43.5 -122.5q0 -76 -42 -123t-112 -47h-2q-62 0 -105 48t-43 122zM104 823q0 71 45 121.5t107 50.5q66 0 109 -47.5t43 -124.5q0 -74 -42 -121t-112 -47h-2q-62 0 -105 47.5t-43 120.5z" />
<glyph unicode=";" horiz-adv-x="477" d="M23 -256q101 291 137 545l264 20q-114 -345 -238 -547zM115 823q0 72 44 122t107 50q66 0 109 -47.5t43 -124.5q0 -74 -42 -121t-112 -47h-2q-62 0 -104.5 47.5t-42.5 120.5z" />
<glyph unicode="&#x3c;" horiz-adv-x="1220" d="M119 481v127l983 482v-209l-721 -336v-4l721 -334v-207z" />
<glyph unicode="=" horiz-adv-x="1220" d="M82 272v168h1057v-168h-1057zM82 655v168h1057v-168h-1057z" />
<glyph unicode="&#x3e;" horiz-adv-x="1220" d="M119 0v203l786 340v4l-786 340v203l983 -455v-180z" />
<glyph unicode="?" horiz-adv-x="684" d="M61 1343q36 24 103 43t137 19q78 0 139.5 -20t99.5 -51.5t63 -74t34.5 -84t9.5 -85.5q0 -66 -25.5 -136.5t-52 -114.5t-73.5 -112q-46 -70 -67.5 -127.5t-20.5 -124.5v-43h-228l-4 37q-10 85 18.5 167.5t90.5 180.5q46 69 67 121.5t21 108.5q0 58 -36.5 92.5t-98.5 34.5 q-82 0 -132 -37zM143 147q0 73 45 119.5t107 48.5q67 0 110.5 -47t43.5 -121q0 -72 -41.5 -117.5t-110.5 -45.5h-2q-65 0 -108.5 46.5t-43.5 116.5z" />
<glyph unicode="@" horiz-adv-x="1271" d="M63 596q0 154 48.5 298.5t133 256.5t211 180t271.5 68q119 0 213 -44t152 -118.5t88 -168.5t30 -200q0 -263 -86 -407t-237 -144q-150 0 -150 175h-6q-36 -82 -96.5 -128.5t-128.5 -46.5q-82 0 -129 66t-47 180q0 130 49.5 242.5t148 184t226.5 71.5q113 0 190 -43 l-70 -377q-39 -211 58 -211q67 0 117.5 108.5t50.5 301.5q0 100 -23.5 183.5t-70 147.5t-123.5 100t-178 36t-196.5 -51.5t-169.5 -142.5t-118.5 -226t-44.5 -291q0 -252 119 -386t311 -134q137 0 266 74l31 -87q-141 -81 -325 -81q-79 0 -153.5 24.5t-140 75t-115 122.5 t-78 173t-28.5 219zM502 573q0 -114 71 -114q46 0 86.5 61.5t53.5 138.5l47 267q-18 10 -53 10q-76 0 -140.5 -107t-64.5 -256z" />
<glyph unicode="A" horiz-adv-x="937" d="M16 0l299 1380h322l268 -1380h-260l-59 315h-248l-62 -315h-260zM365 524h196l-45 289q-19 115 -45 313h-6q-41 -268 -49 -315z" />
<glyph unicode="B" horiz-adv-x="989" d="M119 4v1356q118 26 305 26q111 0 197.5 -20.5t152.5 -77.5q105 -87 105 -250q0 -97 -51 -177.5t-150 -123.5v-8q117 -33 181.5 -123t64.5 -207q0 -164 -103 -270q-127 -139 -452 -139q-143 0 -250 14zM387 201q16 -4 59 -4q87 0 143 52.5t56 153.5q0 98 -58 153.5 t-143 57.5h-57v-413zM387 813h57q72 0 121 55.5t49 139.5q0 80 -39 129t-118 49q-49 0 -70 -8v-365z" />
<glyph unicode="C" horiz-adv-x="808" d="M51 670q0 151 32.5 274.5t86.5 205.5t126.5 138t150.5 80.5t161 24.5q132 0 187 -37l-45 -226q-60 27 -125 27q-59 0 -109.5 -26.5t-91.5 -81t-64.5 -148t-23.5 -217.5q0 -235 78.5 -347t210.5 -112q60 0 129 21l26 -226q-69 -32 -209 -32q-171 0 -290 90t-174.5 241 t-55.5 351z" />
<glyph unicode="D" horiz-adv-x="1005" d="M119 4v1356q111 26 272 26q252 0 383 -122q180 -160 180 -557q0 -206 -50 -354.5t-142 -229.5q-136 -133 -422 -133q-97 0 -221 14zM387 213q12 -4 47 -4q51 0 93 26.5t76 83.5t53.5 158.5t19.5 239.5q0 218 -58.5 336t-177.5 118q-37 0 -53 -6v-952z" />
<glyph unicode="E" horiz-adv-x="806" d="M119 0v1380h600v-233h-332v-318h315v-223h-315v-373h356v-233h-624z" />
<glyph unicode="F" horiz-adv-x="802" d="M119 0v1380h600v-233h-332v-354h311v-224h-311v-569h-268z" />
<glyph unicode="G" horiz-adv-x="966" d="M51 684q2 146 35.5 265.5t89 200.5t130.5 137t158 81t173 25q137 0 225 -41l-47 -232q-60 31 -158 31q-71 0 -128.5 -26t-103 -81t-70.5 -150.5t-25 -225.5q0 -120 21.5 -210.5t59 -142t81 -76t92.5 -24.5q38 0 53 6v334h-123v221h371v-739q-46 -19 -130 -34t-157 -15 q-232 0 -369 137q-89 86 -135 233q-43 137 -43 304v22z" />
<glyph unicode="H" horiz-adv-x="1054" d="M119 0v1380h268v-553h281v553h268v-1380h-268v578h-281v-578h-268z" />
<glyph unicode="I" horiz-adv-x="507" d="M119 0v1380h268v-1380h-268z" />
<glyph unicode="J" horiz-adv-x="606" d="M-18 4l22 225q34 -10 88 -10q32 0 55.5 8t45 29.5t32.5 64.5t11 107v952h270v-940q0 -115 -22.5 -199.5t-57 -133t-88 -77t-104.5 -37.5t-117 -9q-83 0 -135 20z" />
<glyph unicode="K" horiz-adv-x="940" d="M119 0v1380h268v-620h4q13 32 36 93.5t32 84.5l184 442h295l-309 -600l313 -780h-293l-200 571l-62 -112v-459h-268z" />
<glyph unicode="L" horiz-adv-x="778" d="M119 0v1380h268v-1153h354v-227h-622z" />
<glyph unicode="M" horiz-adv-x="1304" d="M68 0l100 1380h283l110 -499q72 -320 98 -484h5q23 180 88 484l108 499h283l84 -1380h-240l-24 483q-13 293 -13 417v40h-6q-40 -236 -88 -424l-119 -493h-190l-115 485q-58 240 -84 432h-6q-6 -218 -20 -461l-23 -479h-231z" />
<glyph unicode="N" horiz-adv-x="1056" d="M119 0v1380h246l213 -540q96 -247 147 -404h4q-1 26 -7 121.5t-9.5 160.5t-7 167t-3.5 190v305h236v-1380h-246l-211 524q-101 262 -139 416h-4q16 -371 16 -629v-311h-235z" />
<glyph unicode="O" horiz-adv-x="985" d="M51 694q0 144 29 269.5t84 223t143 154t199 56.5q96 0 172 -41t123 -107.5t78 -158t43 -183.5t12 -192q0 -153 -21.5 -275.5t-60 -207t-94.5 -140.5t-123 -82t-146 -26h-2q-114 0 -200 57t-136 157t-75 224.5t-25 271.5zM330 696v-20q0 -203 40 -328q42 -131 126 -131h2 q155 0 155 485q0 96 -8 175t-25 145.5t-48.5 103.5t-75.5 37q-57 0 -95.5 -66t-54.5 -168t-16 -233z" />
<glyph unicode="P" horiz-adv-x="935" d="M119 0v1360q123 26 280 26q130 0 220.5 -23t154.5 -83q59 -52 89 -131.5t30 -171.5q0 -205 -117 -332q-61 -64 -153.5 -97.5t-182.5 -33.5h-53v-514h-268zM387 733q12 -4 43 -4q97 0 147 61.5t50 163.5q0 97 -42.5 156t-131.5 59q-39 0 -66 -10v-426z" />
<glyph unicode="Q" horiz-adv-x="985" d="M51 694q0 142 29 267t84 223t143.5 155.5t200.5 57.5q81 0 147.5 -28t112 -79t78.5 -115.5t52 -143t27.5 -156t8.5 -160.5q0 -252 -54.5 -412t-152.5 -213v-10q39 -17 85 -34.5t101 -37.5t84 -31l-94 -202q-170 70 -354 180q-56 29 -66 29q-202 0 -317 187t-115 523z M330 696v-20q0 -207 39 -330q41 -129 127 -129h2q155 0 155 485q0 461 -157 461q-80 0 -123 -131t-43 -336z" />
<glyph unicode="R" horiz-adv-x="962" d="M119 0v1360q137 26 293 26q256 0 368 -102q60 -54 84.5 -123t24.5 -164q0 -113 -55 -205.5t-158 -140.5v-4q69 -27 108 -92.5t60 -179.5q53 -304 88 -375h-281q-13 32 -33 127t-34 203q-18 126 -53.5 173.5t-104.5 47.5h-39v-551h-268zM387 758h47q85 0 134.5 60.5 t49.5 154.5q0 199 -167 205q-43 0 -64 -9v-411z" />
<glyph unicode="S" horiz-adv-x="806" d="M49 43l39 231q41 -23 105 -38t122 -15q92 0 140.5 43t48.5 113t-40 115.5t-138 109.5q-133 82 -196.5 183t-63.5 202q0 84 28 157t81 129t137.5 88t189.5 32q64 0 124 -15t93 -35l-43 -231q-73 47 -176 47q-82 0 -126 -41.5t-44 -101.5q0 -61 38.5 -104t151.5 -111 q250 -152 250 -395q0 -188 -127 -303t-330 -115q-79 0 -153.5 16.5t-110.5 38.5z" />
<glyph unicode="T" horiz-adv-x="804" d="M25 1133v247h757v-247h-245v-1133h-269v1133h-243z" />
<glyph unicode="U" horiz-adv-x="1024" d="M111 528v852h268v-897q0 -264 131 -264q64 0 98.5 58.5t34.5 205.5v897h268v-850q0 -267 -100.5 -406.5t-298.5 -139.5q-211 0 -306 137.5t-95 406.5z" />
<glyph unicode="V" horiz-adv-x="925" d="M2 1380h297l98 -596q54 -318 72 -479h4q26 235 66 486l94 589h295l-316 -1380h-301z" />
<glyph unicode="W" horiz-adv-x="1390" d="M27 1380h278l68 -551q6 -54 47 -483h6q6 60 16 127.5t18 113t22.5 126t21.5 118.5l98 549h217l92 -544q50 -314 66 -490h4q15 152 53 488l68 546h262l-244 -1380h-276l-82 453q-33 183 -62 452h-4q-53 -351 -75 -454l-93 -451h-266z" />
<glyph unicode="X" horiz-adv-x="833" d="M-6 0l258 707l-248 673h281l80 -256q13 -41 33.5 -116.5t29.5 -104.5h4q27 100 57 225l70 252h268l-258 -686l273 -694h-277l-88 254q-26 77 -74 246h-4q-47 -181 -65 -250l-74 -250h-266z" />
<glyph unicode="Y" horiz-adv-x="823" d="M-31 1380h287l94 -329q47 -165 72 -293h4q22 140 63 299l82 323h279l-309 -841v-539h-269v528z" />
<glyph unicode="Z" horiz-adv-x="792" d="M23 0v158l436 983v6h-396v233h699v-198l-418 -942v-7h416v-233h-737z" />
<glyph unicode="[" horiz-adv-x="528" d="M102 -229v1634h379v-172h-176v-1290h176v-172h-379z" />
<glyph unicode="\" horiz-adv-x="573" d="M-35 1397h174l479 -1479h-174z" />
<glyph unicode="]" horiz-adv-x="528" d="M47 -57h176v1290h-176v172h379v-1634h-379v172z" />
<glyph unicode="^" horiz-adv-x="1220" d="M90 362l434 969h172l434 -969h-204l-312 740h-10l-311 -740h-203z" />
<glyph unicode="_" horiz-adv-x="1024" d="M0 -154h1024v-102h-1024v102z" />
<glyph unicode="`" horiz-adv-x="614" d="M61 1407h232l141 -287h-166z" />
<glyph unicode="a" horiz-adv-x="864" d="M39 289q0 94 39.5 167.5t105.5 117t146 65.5t168 23v22q0 61 -37 98t-105 37q-113 0 -204 -57l-50 180q49 30 133 53t179 23q88 0 153.5 -24.5t103 -62.5t60.5 -95.5t30 -111.5t7 -122v-373q0 -138 16 -229h-241l-15 98h-4q-80 -114 -221 -114q-114 0 -189 86t-75 219z M293 317q0 -68 30 -102.5t66 -34.5q35 0 66.5 22t44.5 64q6 21 6 47v174q-38 -1 -72 -8.5t-67.5 -24.5t-53.5 -52.5t-20 -84.5z" />
<glyph unicode="b" horiz-adv-x="915" d="M84 0q8 176 8 297v1120h268v-516h5q80 117 208 117q71 0 126 -38t89 -106t51 -155.5t17 -190.5q0 -256 -91 -400t-235 -144q-65 0 -111 31t-85 104h-6l-15 -119h-229zM360 358q0 -37 11 -63q29 -92 92 -92q127 0 127 305q0 134 -32 209.5t-97 75.5q-29 0 -54 -27t-36 -66 q-11 -29 -11 -61v-281z" />
<glyph unicode="c" horiz-adv-x="661" d="M59 492q0 233 126.5 378.5t332.5 145.5q87 0 148 -27l-35 -211q-55 19 -101 19q-95 0 -149.5 -82t-54.5 -215q0 -137 53 -215t147 -78q60 0 101 20l22 -211q-63 -28 -170 -28q-194 0 -307 131t-113 373z" />
<glyph unicode="d" horiz-adv-x="915" d="M59 500q0 248 93 383t229 135q124 0 168 -100h4v499h268v-1120q0 -113 8 -297h-231l-14 113h-4q-29 -55 -86 -92t-123 -37q-103 0 -175 71.5t-104.5 185.5t-32.5 259zM326 494q0 -140 34.5 -215.5t92.5 -75.5q67 0 92 88q8 19 8 61v264q0 40 -2 60q-8 50 -33 83.5 t-63 33.5q-66 0 -97.5 -83.5t-31.5 -215.5z" />
<glyph unicode="e" horiz-adv-x="858" d="M59 481q0 246 113.5 391.5t288.5 145.5q162 0 251 -123t89 -350q0 -100 -8 -139h-476q3 -111 60 -162t153 -51q97 0 191 32l37 -192q-117 -45 -277 -45q-203 0 -312.5 128.5t-109.5 364.5zM319 594h238q0 103 -28 166t-85 63q-60 0 -91.5 -70.5t-33.5 -158.5z" />
<glyph unicode="f" horiz-adv-x="585" d="M6 811v190h135v41q0 193 103 299q90 93 239 93q87 0 162 -23l-31 -209q-30 12 -82 12q-63 0 -92.5 -46t-29.5 -119v-48h174v-190h-174v-811h-269v811h-135z" />
<glyph unicode="g" horiz-adv-x="915" d="M59 492q0 243 96.5 384.5t241.5 141.5q125 0 185 -117h4l14 100h234q-11 -247 -11 -317v-571q0 -159 -29 -255.5t-92 -156.5q-117 -111 -325 -111q-139 0 -250 48l49 206q95 -43 193 -43q188 0 188 244v61h-4q-26 -47 -74.5 -73.5t-105.5 -26.5q-81 0 -143.5 41.5 t-98.5 112t-54 154.5t-18 178zM326 498q0 -136 35 -208.5t94 -72.5q63 0 90 72q12 34 12 80v268q0 41 -10 74q-10 35 -32 58.5t-54 23.5q-68 0 -101.5 -81.5t-33.5 -213.5z" />
<glyph unicode="h" horiz-adv-x="937" d="M94 0v1417h268v-520h5q32 48 86 86q59 35 135 35q256 0 256 -410v-608h-269v608q0 185 -98 185q-76 0 -104 -95q-11 -44 -11 -75v-623h-268z" />
<glyph unicode="i" horiz-adv-x="456" d="M72 1305q-1 74 43.5 119.5t109.5 45.5q66 0 111 -45t45 -120q0 -71 -45.5 -117.5t-112.5 -46.5h-2q-64 0 -107 46.5t-42 117.5zM94 0v1001h268v-1001h-268z" />
<glyph unicode="j" horiz-adv-x="458" d="M-80 -197q93 12 131 54q28 29 36.5 86t8.5 180v878h271v-929q0 -160 -33 -251t-101 -145q-52 -42 -133 -64t-159 -22zM76 1305q0 75 45 120t112 45q65 0 108.5 -45t43.5 -120q1 -71 -44 -117.5t-112 -46.5h-2q-64 0 -107.5 46.5t-43.5 117.5z" />
<glyph unicode="k" horiz-adv-x="845" d="M92 0v1417h268v-854h5q26 81 51 139l129 299h289l-242 -419l256 -582h-299l-143 412l-46 -86v-326h-268z" />
<glyph unicode="l" horiz-adv-x="456" d="M94 0v1417h268v-1417h-268z" />
<glyph unicode="m" horiz-adv-x="1392" d="M86 1001h233l13 -116h4q40 60 102 96.5t137 36.5q164 0 220 -135h4q39 61 100 100q62 35 141 35q258 0 258 -383v-635h-266v590q0 101 -19 154t-75 53q-72 0 -100 -92q-9 -31 -9 -70v-635h-266v629q0 33 -3 57.5t-11.5 52.5t-28 43t-49.5 15q-32 0 -59.5 -23.5 t-40.5 -66.5q-11 -33 -11 -76v-631h-266v700q0 65 -3.5 171t-4.5 130z" />
<glyph unicode="n" horiz-adv-x="937" d="M86 1001h231l13 -114h4q41 61 104 96t140 35q137 0 201.5 -99.5t64.5 -275.5v-643h-269v627q0 166 -98 166q-72 0 -100 -91q-15 -38 -15 -92v-610h-268v700q0 65 -3.5 171t-4.5 130z" />
<glyph unicode="o" horiz-adv-x="882" d="M59 498q0 130 32 232t87 163.5t123 93t145 31.5q176 0 277.5 -138.5t101.5 -375.5q0 -101 -17.5 -183.5t-48 -137.5t-68.5 -95.5t-82 -62t-84.5 -31.5t-80.5 -10h-2q-181 0 -282 135t-101 379zM324 504q0 -316 120 -316h2q31 0 53 28t34 76t17 100t5 112q0 56 -5.5 107 t-17 99t-35 76.5t-55.5 28.5q-35 0 -59.5 -28.5t-36.5 -77t-17 -98t-5 -107.5z" />
<glyph unicode="p" horiz-adv-x="915" d="M84 1001h233l15 -114h4q31 62 85.5 96.5t123.5 34.5q80 0 141.5 -41t97.5 -113t54 -163t18 -199q0 -129 -27 -230.5t-73 -163t-103.5 -93t-122.5 -31.5q-105 0 -165 98h-5v-475h-268v1077q0 129 -8 317zM360 367q0 -56 15 -86q26 -78 86 -78q45 0 74.5 42.5t41 106.5 t11.5 148q0 142 -32.5 217.5t-92.5 75.5q-30 0 -56 -25t-34 -61q-13 -26 -13 -72v-268z" />
<glyph unicode="q" horiz-adv-x="915" d="M59 479q0 247 96 393t242 146q128 0 185 -121l4 -2l14 106h231q-8 -180 -8 -317v-1077h-268v479h-4q-71 -102 -191 -102q-93 0 -162.5 68t-104 179t-34.5 248zM328 500q0 -138 33 -217.5t94 -79.5q28 0 52.5 21.5t37.5 66.5q10 29 10 65v279q0 38 -8 59q-10 45 -35.5 72 t-56.5 27q-62 0 -94.5 -77t-32.5 -216z" />
<glyph unicode="r" horiz-adv-x="602" d="M84 1001h233l15 -145h6q33 77 87 119.5t112 42.5q41 0 57 -4v-266q-16 4 -57 4q-49 0 -96 -36t-68 -108q-11 -42 -11 -100v-508h-270v700q0 117 -8 301z" />
<glyph unicode="s" horiz-adv-x="663" d="M37 45l49 197q33 -21 83 -37.5t97 -16.5q53 0 81 23.5t28 67.5q0 38 -25.5 67.5t-91.5 67.5q-203 114 -203 288q0 137 91 226.5t239 89.5q108 0 203 -45l-47 -197q-70 41 -140 41q-48 0 -74 -25t-26 -61q0 -34 23.5 -59t93.5 -66q203 -116 203 -303q0 -150 -97.5 -232.5 t-257.5 -82.5q-65 0 -130 15.5t-99 41.5z" />
<glyph unicode="t" horiz-adv-x="636" d="M23 811v190h118v179l269 84v-263h196v-190h-196v-457q0 -145 102 -145q36 0 70 6l2 -209q-67 -18 -164 -18q-127 0 -193 63q-44 42 -65 108t-21 179v473h-118z" />
<glyph unicode="u" horiz-adv-x="925" d="M86 395v606h270v-577q0 -215 101 -215q31 0 53.5 19.5t32.5 47.5q16 32 16 86v639h268v-696q0 -93 9 -305h-232l-14 106h-4q-37 -54 -98 -88t-134 -34q-140 0 -204 102t-64 309z" />
<glyph unicode="v" horiz-adv-x="808" d="M10 1001h285l76 -446q37 -235 43 -281h4q11 91 39 281l78 446h264l-269 -1001h-247z" />
<glyph unicode="w" horiz-adv-x="1261" d="M10 1001h287l53 -432q27 -213 35 -303h6q18 106 55 299l89 436h206l86 -426q46 -260 52 -309h6q8 121 35 307l61 428h264l-258 -1001h-227l-76 350q-35 161 -51 314h-4q-14 -136 -58 -316l-86 -348h-229z" />
<glyph unicode="x" horiz-adv-x="811" d="M12 0l224 500l-222 501h291l62 -178q28 -84 49 -168h4q31 114 47 168l59 178h271l-228 -491l232 -510h-293l-68 188q-28 79 -49 156h-4q-7 -29 -23.5 -84t-21.5 -72l-61 -188h-269z" />
<glyph unicode="y" horiz-adv-x="800" d="M10 1001h289l98 -520q15 -89 27 -168h4q16 100 25 164l84 524h262l-205 -772q-94 -359 -223 -512q-56 -65 -120.5 -104.5t-107.5 -52.5l-82 231q66 22 134 84q57 54 84 119q14 31 14 43q0 13 -8 37z" />
<glyph unicode="z" horiz-adv-x="718" d="M37 0v168l246 446q11 20 33 56t37.5 62.5t23.5 43.5v6h-309v219h602v-182l-240 -430q-74 -124 -96 -164v-6h344v-219h-641z" />
<glyph unicode="{" horiz-adv-x="528" d="M20 508v162q136 0 136 116q0 43 -13 158q-12 106 -12 164q0 145 82 221t229 76h39v-166h-30q-111 -9 -111 -139q0 -49 8 -135t8 -121q0 -200 -155 -250v-4q155 -50 155 -254q0 -39 -8 -129q-8 -82 -8 -127q0 -64 24.5 -100.5t90.5 -42.5h26v-166h-43q-138 0 -222.5 70.5 t-84.5 224.5q0 55 12 165q13 115 13 162q0 46 -30.5 80.5t-105.5 34.5z" />
<glyph unicode="|" horiz-adv-x="446" d="M125 -512v2048h199v-2048h-199z" />
<glyph unicode="}" horiz-adv-x="528" d="M47 -63h27q65 6 89.5 42.5t24.5 100.5q0 45 -8 127q-8 90 -8 129q0 204 156 254v4q-156 50 -156 250q0 35 8 121t8 135q0 131 -110 139h-31v166h37q149 0 231 -75.5t82 -221.5q0 -58 -12 -164t-12 -158q0 -116 135 -116v-162q-75 0 -105 -34.5t-30 -80.5q0 -56 12 -162 q12 -110 12 -165q0 -154 -84.5 -224.5t-222.5 -70.5h-43v166z" />
<glyph unicode="~" horiz-adv-x="1220" d="M117 412q-1 75 15.5 135.5t43 99t63 64.5t75 36.5t79.5 10.5q65 0 125.5 -24.5t147.5 -78.5q85 -52 117.5 -68t62.5 -16q88 0 88 168h170q7 -167 -58.5 -257.5t-191.5 -90.5q-67 0 -122 19t-146 75q-90 57 -130.5 77t-72.5 20q-94 0 -94 -170h-172z" />
<glyph unicode="&#xa1;" horiz-adv-x="483" d="M88 844q0 73 45.5 119.5t108.5 46.5h2q65 0 108 -46t43 -120q0 -72 -41.5 -118t-109.5 -46q-66 0 -111 47t-45 117zM94 -391l33 932h229l33 -932h-295z" />
<glyph unicode="&#xa2;" d="M113 664q0 180 89 308t236 165v206h172v-192q88 -6 144 -35l-33 -205q-65 33 -154 33q-87 0 -137.5 -80.5t-50.5 -204.5q0 -125 56 -199.5t145 -74.5q90 0 161 31l21 -201q-58 -28 -156 -31v-198h-172v204q-141 31 -225 140q-96 127 -96 334z" />
<glyph unicode="&#xa3;" d="M74 0v168q59 23 101.5 74t61.5 108.5t19 114.5q0 77 -6 110h-162v179h133q-22 96 -22 198q0 169 102.5 282.5t276.5 113.5q98 0 170 -35l-41 -217q-54 26 -115 26q-68 0 -103.5 -45t-35.5 -119q0 -79 22 -204h213v-179h-188q6 -101 -19 -180q-35 -105 -102 -166v-4h407 v-225h-712z" />
<glyph unicode="&#xa4;" d="M-12 1061l114 119l131 -162q86 80 205 80h2q120 0 201 -74l133 154l111 -115l-160 -156q45 -102 45 -235q0 -140 -47 -236l160 -166l-111 -112l-137 157q-41 -37 -96.5 -57t-108.5 -20q-119 0 -201 73l-127 -153l-110 112l149 154q-49 98 -49 235q0 141 55 248zM322 664 q0 -103 29.5 -171.5t82.5 -68.5q60 0 84.5 64.5t24.5 179.5q0 243 -109 243h-2q-110 0 -110 -247z" />
<glyph unicode="&#xa5;" d="M12 1331h264l109 -370q45 -143 59 -222h5q26 120 57 226l108 366h248l-248 -598h211v-137h-268v-121h268v-137h-268v-338h-246v338h-266v137h266v121h-266v137h209z" />
<glyph unicode="&#xa6;" horiz-adv-x="446" d="M125 358h199v-716h-199v716zM125 666v716h199v-716h-199z" />
<glyph unicode="&#xa7;" horiz-adv-x="882" d="M68 672q0 137 141 246q-65 72 -68 169q0 140 103.5 224t263.5 84q131 0 221 -52l-41 -167q-82 45 -192 45q-57 0 -95.5 -26t-38.5 -69q0 -53 32 -81t122 -62q56 -23 96 -43t81 -49.5t66 -63t40.5 -80t15.5 -102.5q0 -143 -117 -260q25 -23 45.5 -68.5t20.5 -101.5 q0 -145 -102.5 -232t-260.5 -87q-83 0 -158.5 17t-121.5 48l47 174q104 -65 233 -65q65 0 104.5 28t39.5 80q0 48 -42 83t-149 83q-91 39 -150.5 80.5t-97.5 104.5t-38 143zM260 715q0 -83 152 -148q98 -41 163 -88q20 14 36 47t16 64q0 42 -31.5 80.5t-89.5 64.5 q-132 57 -180 90q-27 -16 -46.5 -46t-19.5 -62v-2z" />
<glyph unicode="&#xa8;" horiz-adv-x="614" d="M10 1257q0 54 35.5 90.5t83.5 36.5q52 0 85.5 -35.5t33.5 -91.5t-33.5 -91.5t-85.5 -35.5h-2q-48 0 -82.5 36t-34.5 91zM365 1257q0 55 34 91t84 36q52 0 85.5 -35.5t33.5 -91.5t-33.5 -91.5t-85.5 -35.5h-2q-48 0 -82 36t-34 91z" />
<glyph unicode="&#xa9;" horiz-adv-x="1386" d="M63 696q0 128 50 245t134.5 201.5t201.5 134.5t247 50h2q128 0 244 -50t199.5 -134.5t132.5 -201.5t49 -245q0 -173 -83 -319t-227.5 -231t-316.5 -85q-130 0 -247 50t-201.5 135t-134.5 202.5t-50 247.5zM199 694q0 -142 65.5 -261t180 -188t251.5 -69q206 -1 351 150.5 t145 367.5q0 141 -66 260.5t-180 188.5t-250 69h-2q-102 0 -193.5 -41t-157.5 -110t-105 -165t-39 -202zM346 684q0 172 117 276.5t287 104.5q69 0 134 -17t87 -36l-31 -115q-91 47 -197 47q-119 0 -185 -67.5t-66 -188.5q0 -108 71 -181t174 -73q121 0 199 47l31 -110 q-107 -58 -248 -58q-166 0 -269.5 106.5t-103.5 264.5z" />
<glyph unicode="&#xaa;" horiz-adv-x="618" d="M63 725q0 63 26 110.5t71 75.5t98.5 41.5t114.5 14.5v16q0 33 -26 57.5t-79 24.5q-75 0 -131 -39l-28 125q85 53 190 53q242 0 242 -280v-232q0 -90 8 -153h-146l-10 67h-4q-57 -78 -151 -78q-75 0 -125 54.5t-50 142.5zM223 743q0 -34 21 -55.5t51 -21.5q47 0 70 41 q12 20 12 34v109q-63 0 -108.5 -25t-45.5 -82z" />
<glyph unicode="&#xab;" horiz-adv-x="784" d="M33 516l215 379h194l-221 -379l221 -379h-194zM360 516l215 379h195l-221 -379l221 -379h-192z" />
<glyph unicode="&#xac;" horiz-adv-x="1220" d="M82 694v168h1057v-645h-170v477h-887z" />
<glyph unicode="&#xad;" horiz-adv-x="530" d="M61 469v193h408v-193h-408z" />
<glyph unicode="&#xae;" horiz-adv-x="1044" d="M61 936q0 125 62 231t168.5 168t232.5 62h2q190 0 323.5 -135t133.5 -326q0 -192 -133.5 -327.5t-325.5 -135.5t-327.5 135.5t-135.5 327.5zM172 934q0 -153 102.5 -260t249.5 -107q148 -1 250.5 106.5t102.5 262.5q0 154 -102.5 261.5t-250.5 107.5h-2 q-145 0 -247.5 -108t-102.5 -263zM336 668v512q96 14 164 14q123 0 176 -41q45 -36 45 -111q0 -43 -27 -75t-71 -43v-4q70 -12 82 -125q12 -95 28 -127h-112q-15 23 -31 133q-9 78 -98 78h-48v-211h-108zM444 965h50q114 0 114 73q0 33 -25.5 53.5t-78.5 20.5q-46 0 -60 -2 v-145z" />
<glyph unicode="&#xaf;" horiz-adv-x="614" d="M90 1194v139h436v-139h-436z" />
<glyph unicode="&#xb0;" horiz-adv-x="587" d="M53 1143q0 106 76 181t172 75h2q110 0 177 -71t67 -173q0 -78 -39.5 -137t-95.5 -87t-115 -28q-105 0 -174.5 68.5t-69.5 171.5zM176 1145q0 -57 38 -97t89 -40q53 0 90 39t37 100q0 60 -33 102.5t-94 42.5h-2q-50 0 -87.5 -43.5t-37.5 -103.5z" />
<glyph unicode="&#xb1;" horiz-adv-x="1220" d="M82 0v168h1057v-168h-1057zM82 639v168h442v354h172v-354h443v-168h-443v-358h-172v358h-442z" />
<glyph unicode="&#xb2;" horiz-adv-x="628" d="M66 539v108l96 117q11 13 37.5 46t36.5 45t30.5 39.5t29 40.5t22 35.5t18.5 37.5t9.5 33.5t4.5 35.5q0 56 -27.5 82.5t-74.5 26.5q-69 0 -131 -47l-41 141q34 30 93.5 49t129.5 19q71 0 123 -20.5t80.5 -55t41.5 -73.5t13 -83q0 -43 -14 -87t-31 -76t-51.5 -75t-55.5 -65 t-63 -65l-37 -39v-7h260v-163h-499z" />
<glyph unicode="&#xb3;" horiz-adv-x="628" d="M63 567l29 142q64 -35 135 -35q51 0 86 30.5t35 77.5q0 55 -42.5 86t-108.5 31h-25v127h14q60 0 105 22.5t45 69.5q0 39 -25 61.5t-67 22.5q-61 0 -121 -37l-31 135q90 48 195 48q120 0 179.5 -57.5t59.5 -137.5q0 -129 -133 -186v-4q66 -12 111 -65t45 -122 q0 -109 -84.5 -178.5t-226.5 -69.5q-112 0 -175 39z" />
<glyph unicode="&#xb4;" horiz-adv-x="614" d="M213 1120l141 287h232l-207 -287h-166z" />
<glyph unicode="&#xb6;" horiz-adv-x="882" d="M43 911q-5 91 22.5 173t85.5 149.5t158.5 107t231.5 39.5q120 0 221 -16v-1466h-148v1333h-118v-1333h-148v643h-14q-19 0 -50 10.5t-71.5 38t-76 67t-62 106.5t-31.5 148z" />
<glyph unicode="&#xb7;" horiz-adv-x="477" d="M84 616q0 75 46.5 127t109.5 52q66 0 110.5 -49t44.5 -130q0 -79 -43 -127.5t-112 -48.5h-2q-65 0 -109.5 49t-44.5 127z" />
<glyph unicode="&#xb8;" horiz-adv-x="614" d="M117 -381l39 115q60 -29 108 -29q27 0 45.5 12.5t18.5 38.5q0 64 -140 76l80 178h142l-50 -100q57 -10 97.5 -50.5t40.5 -99.5q0 -62 -33.5 -103.5t-83 -58t-111.5 -16.5q-81 0 -153 37z" />
<glyph unicode="&#xb9;" horiz-adv-x="628" d="M78 1241l205 96h172v-798h-193v628h-4l-145 -67z" />
<glyph unicode="&#xba;" horiz-adv-x="636" d="M61 864q0 164 73.5 252t182.5 88h2q119 0 183.5 -89.5t64.5 -244.5q0 -79 -16 -140.5t-41 -98.5t-59.5 -61t-67.5 -33t-68 -9q-120 0 -187 89t-67 247zM233 866q0 -88 20.5 -142t63.5 -54q80 0 80 196q0 197 -80 197h-2q-24 0 -41.5 -20.5t-25.5 -53t-11.5 -63 t-3.5 -60.5z" />
<glyph unicode="&#xbb;" horiz-adv-x="784" d="M12 137l221 379l-221 379h193l217 -379l-213 -379h-197zM342 137l221 379l-221 379h193l217 -379l-215 -379h-195z" />
<glyph unicode="&#xbc;" horiz-adv-x="1366" d="M35 1241l205 96h172v-798h-195v628h-4l-143 -67zM240 -16l714 1364h140l-715 -1364h-139zM735 182v123l287 496h188v-477h86v-142h-86v-182h-172v182h-303zM893 324h145v145q0 83 6 135h-4q-9 -17 -24.5 -51.5t-26.5 -54.5l-96 -170v-4z" />
<glyph unicode="&#xbd;" horiz-adv-x="1366" d="M12 1241l205 96h172v-798h-192v628h-4l-146 -67zM184 -16l715 1364h139l-712 -1364h-142zM788 0v109l97 116q10 13 33.5 41.5t33 40.5t28 36t27 36.5t22 32.5t19.5 33.5t13 31t9.5 32.5t2.5 30q0 108 -102 108q-69 0 -131 -47l-41 141q34 30 93.5 49t129.5 19 q71 0 123 -20.5t80.5 -55t41.5 -73t13 -82.5q0 -53 -17 -103.5t-54.5 -101t-64.5 -81t-79 -83.5l-37 -39v-6h260v-164h-500z" />
<glyph unicode="&#xbe;" horiz-adv-x="1366" d="M55 567l29 142q68 -35 135 -35q51 0 86 30.5t35 77.5q0 55 -42.5 86t-109.5 31h-24v127h14q60 0 105 22.5t45 69.5q0 39 -25 61.5t-67 22.5q-61 0 -121 -37l-31 135q90 48 195 48q120 0 179.5 -57.5t59.5 -137.5q0 -129 -133 -186v-4q66 -12 111 -65t45 -122 q0 -109 -85 -178.5t-227 -69.5q-111 0 -174 39zM272 -16l715 1364h139l-712 -1364h-142zM748 182v123l286 496h189v-477h86v-142h-86v-182h-174v182h-301zM905 324h144v145q0 65 8 135h-4q-9 -17 -25 -51.5t-27 -54.5l-96 -170v-4z" />
<glyph unicode="&#xbf;" horiz-adv-x="684" d="M41 -94q0 50 12 99t36.5 98t45.5 82.5t55 82.5q47 69 68.5 126.5t20.5 125.5v43h227l4 -37q10 -85 -18.5 -167.5t-90.5 -180.5q-46 -72 -67 -123t-21 -106q0 -58 37 -92.5t101 -34.5q78 0 131 37l43 -207q-36 -24 -102.5 -43t-135.5 -19q-96 0 -167 29.5t-108 78 t-54 100.5t-17 108zM240 842q0 75 44 121.5t109 46.5h2q65 0 107.5 -46t42.5 -122q0 -72 -41 -118t-109 -46q-67 0 -111 46.5t-44 117.5z" />
<glyph unicode="&#xc0;" horiz-adv-x="937" d="M16 0l299 1380h322l268 -1380h-260l-59 315h-248l-62 -315h-260zM150 1710h256l192 -256h-174zM365 524h196l-45 289q-19 115 -45 313h-6q-41 -268 -49 -315z" />
<glyph unicode="&#xc1;" horiz-adv-x="937" d="M16 0l299 1380h322l268 -1380h-260l-59 315h-248l-62 -315h-260zM365 524h196l-45 289q-19 115 -45 313h-6q-41 -268 -49 -315zM395 1454l193 256h256l-273 -256h-176z" />
<glyph unicode="&#xc2;" horiz-adv-x="937" d="M16 0l299 1380h322l268 -1380h-260l-59 315h-248l-62 -315h-260zM225 1454l178 256h158l184 -256h-184l-78 137h-4l-76 -137h-178zM365 524h196l-45 289q-19 115 -45 313h-6q-41 -268 -49 -315z" />
<glyph unicode="&#xc3;" horiz-adv-x="937" d="M16 0l299 1380h322l268 -1380h-260l-59 315h-248l-62 -315h-260zM244 1470q-4 111 32.5 165.5t102.5 54.5q50 0 106 -35t76 -35q23 0 33.5 16.5t15.5 59.5h121q6 -217 -143 -217q-55 0 -109 32q-50 31 -71 31q-37 0 -43 -72h-121zM365 524h196l-45 289q-19 115 -45 313 h-6q-41 -268 -49 -315z" />
<glyph unicode="&#xc4;" horiz-adv-x="937" d="M16 0l299 1380h322l268 -1380h-260l-59 315h-248l-62 -315h-260zM197 1585q0 53 34.5 89t79.5 36q48 0 81.5 -36t33.5 -89q0 -51 -34 -87t-81 -36h-2q-45 0 -78.5 36.5t-33.5 86.5zM365 524h196l-45 289q-19 115 -45 313h-6q-41 -268 -49 -315zM543 1585q0 53 34.5 89 t79.5 36q48 0 81.5 -36t33.5 -89q0 -51 -34 -87t-81 -36h-2q-45 0 -78.5 36.5t-33.5 86.5z" />
<glyph unicode="&#xc5;" horiz-adv-x="937" d="M18 0l304 1405q-60 50 -60 127q0 69 57 123.5t160 54.5q107 0 161 -51t54 -121q0 -90 -63 -135l276 -1403h-262l-59 315h-250l-57 -315h-261zM362 524h197l-49 320q-25 149 -39 282h-8q-3 -33 -9 -74t-11 -70.5t-13.5 -74t-11.5 -63.5zM401 1526q0 -41 18.5 -68.5 t57.5 -27.5q80 0 80 100q0 36 -20 60t-60 24h-2q-38 0 -56 -25.5t-18 -62.5z" />
<glyph unicode="&#xc6;" horiz-adv-x="1218" d="M-14 0l415 1380h756l-2 -233h-362l18 -340h334v-223h-311l20 -351h334v-233h-570l-24 377h-252l-92 -377h-264zM391 586h182l-16 342q-4 89 -16 266h-6q-14 -62 -41.5 -177.5t-34.5 -148.5z" />
<glyph unicode="&#xc7;" horiz-adv-x="823" d="M51 670q0 151 32.5 274.5t86.5 205.5t126.5 138t150.5 80.5t161 24.5q132 0 187 -37l-45 -226q-60 27 -125 27q-59 0 -109.5 -26.5t-91.5 -81t-64.5 -148t-23.5 -217.5q0 -235 78.5 -347t210.5 -112q60 0 129 21l26 -226q-69 -32 -200 -32l-39 -78q57 -10 97 -50.5 t40 -99.5q0 -91 -64.5 -133.5t-162.5 -42.5q-86 0 -154 35l39 117q57 -31 106 -31q28 0 47 13t19 40q0 30 -36 50t-103 26l77 168q-194 46 -294.5 224t-100.5 444z" />
<glyph unicode="&#xc8;" horiz-adv-x="806" d="M111 1710h256l192 -256h-174zM119 0v1380h600v-233h-332v-318h315v-223h-315v-373h356v-233h-624z" />
<glyph unicode="&#xc9;" horiz-adv-x="806" d="M119 0v1380h600v-233h-332v-318h315v-223h-315v-373h356v-233h-624zM319 1454l193 256h256l-274 -256h-175z" />
<glyph unicode="&#xca;" horiz-adv-x="806" d="M119 0v1380h600v-233h-332v-318h315v-223h-315v-373h356v-233h-624zM168 1454l178 256h160l184 -256h-186l-76 137h-4l-78 -137h-178z" />
<glyph unicode="&#xcb;" horiz-adv-x="806" d="M119 0v1380h600v-233h-332v-318h315v-223h-315v-373h356v-233h-624zM139 1585q0 53 34.5 89t80.5 36q48 0 81.5 -36t33.5 -89q0 -51 -34 -87t-81 -36h-2q-45 0 -79 36.5t-34 86.5zM485 1585q0 53 34.5 89t80.5 36q48 0 81.5 -36t33.5 -89q0 -51 -34 -87t-81 -36h-2 q-45 0 -79 36.5t-34 86.5z" />
<glyph unicode="&#xcc;" horiz-adv-x="507" d="M-80 1710h256l193 -256h-174zM119 0v1380h268v-1380h-268z" />
<glyph unicode="&#xcd;" horiz-adv-x="507" d="M119 0v1380h268v-1380h-268zM145 1454l193 256h256l-275 -256h-174z" />
<glyph unicode="&#xce;" horiz-adv-x="507" d="M-6 1454l178 256h160l184 -256h-186l-76 137h-4l-78 -137h-178zM119 0v1380h268v-1380h-268z" />
<glyph unicode="&#xcf;" horiz-adv-x="507" d="M-33 1585q0 53 34 89t79 36q48 0 81.5 -36t33.5 -89q0 -51 -34 -87t-81 -36h-2q-45 0 -78 36t-33 87zM119 0v1380h268v-1380h-268zM313 1585q0 53 34 89t79 36q48 0 81.5 -36t33.5 -89q0 -51 -34 -87t-81 -36h-2q-45 0 -78 36t-33 87z" />
<glyph unicode="&#xd0;" horiz-adv-x="1009" d="M0 621v186h125v553q107 26 272 26q252 0 383 -122q178 -159 178 -557q0 -412 -190 -586q-142 -133 -422 -133q-119 0 -221 16v617h-125zM391 211q14 -4 49 -4q51 0 93 26.5t76 84t53.5 159t19.5 240.5q0 218 -59 336t-179 118q-29 0 -53 -6v-358h152v-186h-152v-410z" />
<glyph unicode="&#xd1;" horiz-adv-x="1056" d="M119 0v1380h246l213 -540q96 -247 147 -404h4q-1 26 -7 121.5t-9.5 160.5t-7 167t-3.5 190v305h236v-1380h-246l-211 524q-101 262 -139 416h-4q16 -371 16 -629v-311h-235zM293 1470q-4 111 32.5 165.5t102.5 54.5q51 0 107 -35t75 -35q23 0 33.5 16.5t15.5 59.5h121 q6 -217 -143 -217q-55 0 -109 32q-50 31 -71 31q-37 0 -43 -72h-121z" />
<glyph unicode="&#xd2;" horiz-adv-x="985" d="M51 694q0 144 29 269.5t84 223t143 154t199 56.5q96 0 172 -41t123 -107.5t78 -158t43 -183.5t12 -192q0 -153 -21.5 -275.5t-60 -207t-94.5 -140.5t-123 -82t-146 -26h-2q-114 0 -200 57t-136 157t-75 224.5t-25 271.5zM160 1710h256l192 -256h-174zM330 696 q-2 -217 39.5 -348t126.5 -131h2q155 0 155 485q0 96 -8 175t-25 145.5t-48.5 103.5t-75.5 37q-57 0 -95.5 -66t-54.5 -168t-16 -233z" />
<glyph unicode="&#xd3;" horiz-adv-x="985" d="M51 694q0 144 29 269.5t84 223t143 154t199 56.5q96 0 172 -41t123 -107.5t78 -158t43 -183.5t12 -192q0 -153 -21.5 -275.5t-60 -207t-94.5 -140.5t-123 -82t-146 -26h-2q-114 0 -200 57t-136 157t-75 224.5t-25 271.5zM330 696q-2 -217 39.5 -348t126.5 -131h2 q155 0 155 485q0 96 -8 175t-25 145.5t-48.5 103.5t-75.5 37q-57 0 -95.5 -66t-54.5 -168t-16 -233zM406 1454l192 256h256l-274 -256h-174z" />
<glyph unicode="&#xd4;" horiz-adv-x="985" d="M51 694q0 144 29 269.5t84 223t143 154t199 56.5q96 0 172 -41t123 -107.5t78 -158t43 -183.5t12 -192q0 -153 -21.5 -275.5t-60 -207t-94.5 -140.5t-123 -82t-146 -26h-2q-114 0 -200 57t-136 157t-75 224.5t-25 271.5zM231 1454l179 256h159l185 -256h-187l-75 137h-5 l-77 -137h-179zM330 696q-2 -217 39.5 -348t126.5 -131h2q155 0 155 485q0 96 -8 175t-25 145.5t-48.5 103.5t-75.5 37q-57 0 -95.5 -66t-54.5 -168t-16 -233z" />
<glyph unicode="&#xd5;" horiz-adv-x="985" d="M51 694q0 144 29 269.5t84 223t143 154t199 56.5q96 0 172 -41t123 -107.5t78 -158t43 -183.5t12 -192q0 -153 -21.5 -275.5t-60 -207t-94.5 -140.5t-123 -82t-146 -26h-2q-114 0 -200 57t-136 157t-75 224.5t-25 271.5zM250 1470q-4 111 32.5 165.5t102.5 54.5 q53 0 109 -35t75 -35q22 0 32.5 16.5t16.5 59.5h119q6 -217 -141 -217q-53 0 -111 32q-4 2 -10.5 6.5t-9.5 6t-8.5 5t-8.5 5t-8 3.5t-8.5 3t-8 1.5t-9.5 0.5q-37 0 -43 -72h-121zM330 696q-2 -217 39.5 -348t126.5 -131h2q155 0 155 485q0 96 -8 175t-25 145.5t-48.5 103.5 t-75.5 37q-57 0 -95.5 -66t-54.5 -168t-16 -233z" />
<glyph unicode="&#xd6;" horiz-adv-x="985" d="M51 694q0 144 29 269.5t84 223t143 154t199 56.5q96 0 172 -41t123 -107.5t78 -158t43 -183.5t12 -192q0 -153 -21.5 -275.5t-60 -207t-94.5 -140.5t-123 -82t-146 -26h-2q-114 0 -200 57t-136 157t-75 224.5t-25 271.5zM203 1585q0 53 34.5 89t79.5 36q48 0 81.5 -36 t33.5 -89q0 -51 -34 -87t-81 -36h-2q-45 0 -78.5 36.5t-33.5 86.5zM330 696q-2 -217 39.5 -348t126.5 -131h2q155 0 155 485q0 96 -8 175t-25 145.5t-48.5 103.5t-75.5 37q-57 0 -95.5 -66t-54.5 -168t-16 -233zM551 1585q0 53 34 89t79 36q48 0 81 -36t33 -89 q0 -51 -33.5 -87t-80.5 -36h-2q-45 0 -78 36t-33 87z" />
<glyph unicode="&#xd7;" horiz-adv-x="1220" d="M82 125l407 414l-407 415l115 123l413 -420l414 420l115 -123l-410 -415l410 -414l-121 -125l-408 418l-409 -418z" />
<glyph unicode="&#xd8;" horiz-adv-x="985" d="M51 694q0 141 28.5 266t82.5 223.5t140.5 156t195.5 57.5q110 0 196 -56l64 144l141 -60l-86 -194q121 -179 121 -516q0 -374 -118 -552.5t-322 -178.5q-121 0 -207 63l-68 -151l-135 73l88 197q-121 183 -121 528zM313 696q0 -134 11 -215h4l264 625q-31 57 -96 57 q-85 0 -134 -120.5t-49 -346.5zM385 285q16 -34 46.5 -51t64.5 -17q85 0 130.5 124t45.5 361q0 118 -10 205h-5z" />
<glyph unicode="&#xd9;" horiz-adv-x="1024" d="M111 528v852h268v-897q0 -264 131 -264q64 0 98.5 58.5t34.5 205.5v897h268v-850q0 -267 -100.5 -406.5t-298.5 -139.5q-211 0 -306 137.5t-95 406.5zM203 1710h256l192 -256h-174z" />
<glyph unicode="&#xda;" horiz-adv-x="1024" d="M111 528v852h268v-897q0 -264 131 -264q64 0 98.5 58.5t34.5 205.5v897h268v-850q0 -267 -100.5 -406.5t-298.5 -139.5q-211 0 -306 137.5t-95 406.5zM389 1454l193 256h256l-275 -256h-174z" />
<glyph unicode="&#xdb;" horiz-adv-x="1024" d="M111 528v852h268v-897q0 -264 131 -264q64 0 98.5 58.5t34.5 205.5v897h268v-850q0 -267 -100.5 -406.5t-298.5 -139.5q-211 0 -306 137.5t-95 406.5zM258 1454l178 256h160l184 -256h-184l-78 137h-4l-76 -137h-180z" />
<glyph unicode="&#xdc;" horiz-adv-x="1024" d="M111 528v852h268v-897q0 -264 131 -264q64 0 98.5 58.5t34.5 205.5v897h268v-850q0 -267 -100.5 -406.5t-298.5 -139.5q-211 0 -306 137.5t-95 406.5zM223 1585q0 53 34 89t81 36q48 0 81.5 -36t33.5 -89q0 -51 -34 -87t-81 -36h-2q-45 0 -79 36.5t-34 86.5zM569 1585 q0 53 34 89t81 36q48 0 81.5 -36t33.5 -89q0 -51 -34 -87t-81 -36h-2q-45 0 -79 36.5t-34 86.5z" />
<glyph unicode="&#xdd;" horiz-adv-x="823" d="M-31 1380h287l94 -329q47 -165 72 -293h4q22 140 63 299l82 323h279l-309 -841v-539h-269v528zM340 1454l192 256h256l-274 -256h-174z" />
<glyph unicode="&#xde;" horiz-adv-x="927" d="M119 0v1380h262v-237q25 4 86 4q94 0 166 -20t133 -74q121 -107 121 -310q0 -99 -27 -179t-70 -131t-100.5 -85.5t-115.5 -48.5t-117 -14q-40 0 -76 8v-293h-262zM381 512q27 -6 59 -6q87 0 136 60.5t49 156.5q0 94 -42 150.5t-132 56.5q-40 0 -70 -6v-412z" />
<glyph unicode="&#xdf;" horiz-adv-x="1009" d="M94 0v885q0 162 33 262.5t102 167.5q122 119 310 119q176 0 272 -99.5t96 -249.5q0 -43 -13.5 -87.5t-33.5 -69.5q-102 -57 -102 -140q0 -38 17.5 -69.5t58.5 -79.5q71 -83 101 -154.5t30 -162.5q0 -151 -100.5 -244.5t-252.5 -93.5q-100 0 -176 26l31 205 q54 -25 127 -25q55 0 86 33t31 76t-20 81t-68 95q-63 75 -92 133t-29 135q0 74 39 138t98 98q14 31 14 96q0 64 -36.5 104t-92.5 40q-162 0 -162 -312v-907h-268z" />
<glyph unicode="&#xe0;" horiz-adv-x="864" d="M39 289q0 94 39.5 167.5t105.5 117t146 65.5t168 23v22q0 61 -37 98t-105 37q-113 0 -204 -57l-50 180q49 30 133 53t179 23q88 0 153.5 -24.5t103 -62.5t60.5 -95.5t30 -111.5t7 -122v-373q0 -138 16 -229h-241l-15 98h-4q-80 -114 -221 -114q-114 0 -189 86t-75 219z M164 1407h231l142 -287h-166zM293 317q0 -68 30 -102.5t66 -34.5q35 0 66.5 22t44.5 64q6 21 6 47v174q-38 -1 -72 -8.5t-67.5 -24.5t-53.5 -52.5t-20 -84.5z" />
<glyph unicode="&#xe1;" horiz-adv-x="864" d="M39 289q0 94 39.5 167.5t105.5 117t146 65.5t168 23v22q0 61 -37 98t-105 37q-113 0 -204 -57l-50 180q49 30 133 53t179 23q88 0 153.5 -24.5t103 -62.5t60.5 -95.5t30 -111.5t7 -122v-373q0 -138 16 -229h-241l-15 98h-4q-80 -114 -221 -114q-114 0 -189 86t-75 219z M293 317q0 -68 30 -102.5t66 -34.5q35 0 66.5 22t44.5 64q6 21 6 47v174q-38 -1 -72 -8.5t-67.5 -24.5t-53.5 -52.5t-20 -84.5zM332 1120l141 287h232l-207 -287h-166z" />
<glyph unicode="&#xe2;" horiz-adv-x="864" d="M39 289q0 94 39.5 167.5t105.5 117t146 65.5t168 23v22q0 61 -37 98t-105 37q-113 0 -204 -57l-50 180q49 30 133 53t179 23q88 0 153.5 -24.5t103 -62.5t60.5 -95.5t30 -111.5t7 -122v-373q0 -138 16 -229h-241l-15 98h-4q-80 -114 -221 -114q-114 0 -189 86t-75 219z M193 1120l167 287h136l174 -287h-160l-80 156h-4l-80 -156h-153zM293 317q0 -68 30 -102.5t66 -34.5q35 0 66.5 22t44.5 64q6 21 6 47v174q-38 -1 -72 -8.5t-67.5 -24.5t-53.5 -52.5t-20 -84.5z" />
<glyph unicode="&#xe3;" horiz-adv-x="864" d="M39 289q0 94 39.5 167.5t105.5 117t146 65.5t168 23v22q0 61 -37 98t-105 37q-113 0 -204 -57l-50 180q49 30 133 53t179 23q88 0 153.5 -24.5t103 -62.5t60.5 -95.5t30 -111.5t7 -122v-373q0 -138 16 -229h-241l-15 98h-4q-80 -114 -221 -114q-114 0 -189 86t-75 219z M193 1145q0 91 34.5 155t104.5 64q24 0 43 -5.5t44.5 -20t26.5 -15.5q7 -4 19.5 -11t20 -11t17.5 -7.5t19 -3.5q23 0 35.5 16.5t13.5 63.5h103q0 -105 -34.5 -159t-98.5 -54q-38 0 -109 37q-61 35 -86 35q-44 0 -47 -84h-106zM293 317q0 -68 30 -102.5t66 -34.5 q35 0 66.5 22t44.5 64q6 21 6 47v174q-38 -1 -72 -8.5t-67.5 -24.5t-53.5 -52.5t-20 -84.5z" />
<glyph unicode="&#xe4;" horiz-adv-x="864" d="M39 289q0 94 39.5 167.5t105.5 117t146 65.5t168 23v22q0 61 -37 98t-105 37q-113 0 -204 -57l-50 180q49 30 133 53t179 23q88 0 153.5 -24.5t103 -62.5t60.5 -95.5t30 -111.5t7 -122v-373q0 -138 16 -229h-241l-15 98h-4q-80 -114 -221 -114q-114 0 -189 86t-75 219z M135 1257q0 55 35.5 91t85.5 36q52 0 85.5 -35.5t33.5 -91.5t-33.5 -91.5t-85.5 -35.5h-2q-50 0 -84.5 36t-34.5 91zM293 317q0 -68 30 -102.5t66 -34.5q35 0 66.5 22t44.5 64q6 21 6 47v174q-38 -1 -72 -8.5t-67.5 -24.5t-53.5 -52.5t-20 -84.5zM489 1257q0 55 35.5 91 t85.5 36t84.5 -35.5t34.5 -91.5q0 -55 -34 -91t-85 -36h-2q-50 0 -84.5 36t-34.5 91z" />
<glyph unicode="&#xe5;" horiz-adv-x="864" d="M39 289q0 94 39.5 167.5t105.5 117t146 65.5t168 23v22q0 61 -37 98t-105 37q-113 0 -204 -57l-50 180q49 30 133 53t179 23q88 0 153.5 -24.5t103 -62.5t60.5 -95.5t30 -111.5t7 -122v-373q0 -138 16 -229h-241l-15 98h-4q-80 -114 -221 -114q-114 0 -189 86t-75 219z M227 1284q0 84 53.5 138.5t155.5 54.5h2q99 0 151 -52t52 -135q0 -81 -54.5 -134.5t-150.5 -53.5q-101 0 -155 51.5t-54 130.5zM293 317q0 -68 30 -102.5t66 -34.5q35 0 66.5 22t44.5 64q6 21 6 47v174q-38 -1 -72 -8.5t-67.5 -24.5t-53.5 -52.5t-20 -84.5zM354 1286 q0 -34 19.5 -64t60.5 -30q46 0 66 29.5t20 68.5q0 40 -19.5 68t-66.5 28h-2q-40 0 -59 -30.5t-19 -69.5z" />
<glyph unicode="&#xe6;" horiz-adv-x="1296" d="M39 299q0 89 39 157.5t104.5 108.5t144 60.5t165.5 21.5v31q0 61 -41 101t-115 40q-47 0 -98.5 -16t-85.5 -39l-50 178q57 35 133.5 55.5t151.5 20.5q92 0 160 -41t98 -117h4q88 158 273 158q146 0 231.5 -125.5t85.5 -347.5q0 -37 -8 -107h-475q0 -132 60.5 -193 t158.5 -61q104 0 184 41l37 -186q-110 -55 -268 -55q-105 0 -190.5 44.5t-125.5 129.5h-6q-103 -174 -291 -174q-120 0 -198 88.5t-78 226.5zM279 309q0 -61 31 -93t71 -32q35 0 64.5 23.5t41.5 64.5q9 24 9 56v151q-38 0 -72.5 -7t-69 -24.5t-55 -53t-20.5 -85.5zM756 612 h237q2 93 -25 156t-83 63q-41 0 -71.5 -37.5t-43.5 -85.5t-14 -96z" />
<glyph unicode="&#xe7;" horiz-adv-x="661" d="M59 492q0 233 126.5 378.5t332.5 145.5q87 0 148 -27l-35 -211q-55 19 -101 19q-95 0 -149.5 -82t-54.5 -215q0 -137 53 -215t147 -78q62 0 103 20l22 -209q-56 -27 -162 -30l-40 -78q58 -9 98.5 -50t40.5 -100q0 -91 -65.5 -134.5t-162.5 -43.5q-85 0 -153 37l39 115 q60 -29 106 -29q66 0 66 51q0 64 -139 76l75 172q-139 37 -217 162.5t-78 325.5z" />
<glyph unicode="&#xe8;" horiz-adv-x="858" d="M59 481q0 246 113.5 391.5t288.5 145.5q162 0 251 -123t89 -350q0 -100 -8 -139h-476q3 -111 60 -162t153 -51q97 0 191 32l37 -192q-117 -45 -277 -45q-203 0 -312.5 128.5t-109.5 364.5zM190 1407h232l139 -287h-164zM319 594h238q0 103 -28 166t-85 63 q-60 0 -91.5 -70.5t-33.5 -158.5z" />
<glyph unicode="&#xe9;" horiz-adv-x="858" d="M59 481q0 246 113.5 391.5t288.5 145.5q162 0 251 -123t89 -350q0 -100 -8 -139h-476q3 -111 60 -162t153 -51q97 0 191 32l37 -192q-117 -45 -277 -45q-203 0 -312.5 128.5t-109.5 364.5zM319 594h238q0 103 -28 166t-85 63q-60 0 -91.5 -70.5t-33.5 -158.5zM369 1120 l139 287h231l-204 -287h-166z" />
<glyph unicode="&#xea;" horiz-adv-x="858" d="M59 481q0 246 113.5 391.5t288.5 145.5q162 0 251 -123t89 -350q0 -100 -8 -139h-476q3 -111 60 -162t153 -51q97 0 191 32l37 -192q-117 -45 -277 -45q-203 0 -312.5 128.5t-109.5 364.5zM219 1120l168 287h135l174 -287h-159l-80 156h-4l-80 -156h-154zM319 594h238 q0 103 -28 166t-85 63q-60 0 -91.5 -70.5t-33.5 -158.5z" />
<glyph unicode="&#xeb;" horiz-adv-x="858" d="M59 481q0 246 113.5 391.5t288.5 145.5q162 0 251 -123t89 -350q0 -100 -8 -139h-476q3 -111 60 -162t153 -51q97 0 191 32l37 -192q-117 -45 -277 -45q-203 0 -312.5 128.5t-109.5 364.5zM170 1257q0 55 35.5 91t85.5 36q52 0 85.5 -35.5t33.5 -91.5t-33.5 -91.5 t-85.5 -35.5h-2q-50 0 -84.5 36t-34.5 91zM319 594h238q0 103 -28 166t-85 63q-60 0 -91.5 -70.5t-33.5 -158.5zM524 1257q0 55 35.5 91t85.5 36q52 0 85.5 -35.5t33.5 -91.5q0 -55 -34 -91t-85 -36h-2q-50 0 -84.5 36t-34.5 91z" />
<glyph unicode="&#xec;" horiz-adv-x="456" d="M-45 1407h231l140 -287h-166zM94 0v1001h268v-1001h-268z" />
<glyph unicode="&#xed;" horiz-adv-x="456" d="M94 0v1001h268v-1001h-268zM135 1120l139 287h232l-205 -287h-166z" />
<glyph unicode="&#xee;" horiz-adv-x="456" d="M-10 1120l168 287h135l174 -287h-160l-80 156h-4l-80 -156h-153zM94 0v1001h268v-1001h-268z" />
<glyph unicode="&#xef;" horiz-adv-x="456" d="M-68 1257q0 55 34.5 91t84.5 36q52 0 85.5 -35.5t33.5 -91.5t-33.5 -91.5t-85.5 -35.5h-2q-48 0 -82.5 36t-34.5 91zM94 0v1001h268v-1001h-268zM285 1257q0 55 35.5 91t85.5 36q51 0 84.5 -35t33.5 -92q0 -56 -33 -91.5t-85 -35.5h-3q-50 0 -84 36t-34 91z" />
<glyph unicode="&#xf0;" horiz-adv-x="882" d="M61 498q0 220 91 345t219 144q65 13 114 -14l4 10q-51 97 -114 154l-201 -105l-57 88l168 90q-24 24 -127 105l153 135q98 -65 176 -135l189 98l57 -94l-166 -82q88 -93 174 -258q86 -171 86 -447q0 -107 -17.5 -194.5t-48 -145.5t-68.5 -100t-83.5 -65t-87 -33 t-84.5 -10q-178 0 -277.5 135.5t-99.5 378.5zM326 504q0 -142 28.5 -229t89.5 -87h2q111 0 111 306q0 174 -18 235q-25 90 -93 90q-36 0 -61.5 -31.5t-37 -83.5t-16.5 -100t-5 -100z" />
<glyph unicode="&#xf1;" horiz-adv-x="937" d="M86 1001h231l13 -114h4q41 61 104 96t140 35q137 0 201.5 -99.5t64.5 -275.5v-643h-269v627q0 166 -98 166q-72 0 -100 -91q-15 -38 -15 -92v-610h-268v700q0 65 -3.5 171t-4.5 130zM246 1145q0 91 34.5 155t104.5 64q19 0 37 -5t29 -10t27 -14t22 -12t23.5 -13.5t29 -15 t22.5 -4.5q23 0 35.5 16.5t12.5 63.5h104q0 -105 -34.5 -159t-98.5 -54q-38 0 -109 37q-61 35 -86 35q-44 0 -47 -84h-106z" />
<glyph unicode="&#xf2;" horiz-adv-x="882" d="M59 498q0 130 32 232t87 163.5t123 93t145 31.5q176 0 277.5 -138.5t101.5 -375.5q0 -101 -17.5 -183.5t-48 -137.5t-68.5 -95.5t-82 -62t-84.5 -31.5t-80.5 -10h-2q-181 0 -282 135t-101 379zM170 1407h231l140 -287h-164zM324 504q0 -316 120 -316h2q31 0 53 28t34 76 t17 100t5 112q0 56 -5.5 107t-17 99t-35 76.5t-55.5 28.5q-35 0 -59.5 -28.5t-36.5 -77t-17 -98t-5 -107.5z" />
<glyph unicode="&#xf3;" horiz-adv-x="882" d="M59 498q0 130 32 232t87 163.5t123 93t145 31.5q176 0 277.5 -138.5t101.5 -375.5q0 -101 -17.5 -183.5t-48 -137.5t-68.5 -95.5t-82 -62t-84.5 -31.5t-80.5 -10h-2q-181 0 -282 135t-101 379zM324 504q0 -316 120 -316h2q31 0 53 28t34 76t17 100t5 112q0 56 -5.5 107 t-17 99t-35 76.5t-55.5 28.5q-35 0 -59.5 -28.5t-36.5 -77t-17 -98t-5 -107.5zM358 1120l142 287h231l-207 -287h-166z" />
<glyph unicode="&#xf4;" horiz-adv-x="882" d="M59 498q0 130 32 232t87 163.5t123 93t145 31.5q176 0 277.5 -138.5t101.5 -375.5q0 -101 -17.5 -183.5t-48 -137.5t-68.5 -95.5t-82 -62t-84.5 -31.5t-80.5 -10h-2q-181 0 -282 135t-101 379zM203 1120l168 287h135l174 -287h-160l-80 156h-4l-80 -156h-153zM324 504 q0 -316 120 -316h2q31 0 53 28t34 76t17 100t5 112q0 56 -5.5 107t-17 99t-35 76.5t-55.5 28.5q-35 0 -59.5 -28.5t-36.5 -77t-17 -98t-5 -107.5z" />
<glyph unicode="&#xf5;" horiz-adv-x="882" d="M59 498q0 130 32 232t87 163.5t123 93t145 31.5q176 0 277.5 -138.5t101.5 -375.5q0 -101 -17.5 -183.5t-48 -137.5t-68.5 -95.5t-82 -62t-84.5 -31.5t-80.5 -10h-2q-181 0 -282 135t-101 379zM201 1145q0 58 13.5 105.5t46 80.5t79.5 33q24 0 43.5 -6t44.5 -19.5 t29 -15.5q6 -3 18 -10.5t19 -11.5t17 -7.5t19 -3.5q24 0 36.5 16t13.5 64h104q0 -104 -35.5 -158.5t-99.5 -54.5q-38 0 -109 37q-61 35 -86 35q-21 0 -33 -22t-12 -62h-108zM324 504q0 -316 120 -316h2q31 0 53 28t34 76t17 100t5 112q0 56 -5.5 107t-17 99t-35 76.5 t-55.5 28.5q-35 0 -59.5 -28.5t-36.5 -77t-17 -98t-5 -107.5z" />
<glyph unicode="&#xf6;" horiz-adv-x="882" d="M59 498q0 130 32 232t87 163.5t123 93t145 31.5q176 0 277.5 -138.5t101.5 -375.5q0 -101 -17.5 -183.5t-48 -137.5t-68.5 -95.5t-82 -62t-84.5 -31.5t-80.5 -10h-2q-181 0 -282 135t-101 379zM143 1257q0 55 35.5 91t85.5 36q52 0 85.5 -35.5t33.5 -91.5t-33.5 -91.5 t-85.5 -35.5h-2q-50 0 -84.5 36t-34.5 91zM324 504q0 -316 120 -316h2q31 0 53 28t34 76t17 100t5 112q0 56 -5.5 107t-17 99t-35 76.5t-55.5 28.5q-35 0 -59.5 -28.5t-36.5 -77t-17 -98t-5 -107.5zM498 1257q0 55 35 91t85 36q52 0 85.5 -35.5t33.5 -91.5t-33.5 -91.5 t-85.5 -35.5h-2q-50 0 -84 36t-34 91z" />
<glyph unicode="&#xf7;" horiz-adv-x="1220" d="M80 463v168h1057v-168h-1057zM489 195q0 55 34 91t87 36t86 -36t33 -91t-31.5 -90t-89.5 -35h-2q-52 0 -84.5 36t-32.5 89zM492 897q0 56 33 91.5t87 35.5t86.5 -35.5t32.5 -91.5q0 -55 -31.5 -90t-89.5 -35h-2q-52 0 -84 36t-32 89z" />
<glyph unicode="&#xf8;" horiz-adv-x="882" d="M59 498q0 130 32 232t87 163.5t122.5 93t143.5 31.5h2q100 0 179 -49l67 116l119 -63l-84 -150q98 -137 98 -368q0 -101 -17.5 -183.5t-48 -137.5t-68.5 -95.5t-82 -62t-84.5 -31.5t-80.5 -10q-107 0 -186 49l-65 -117l-113 76l76 135q-97 135 -97 371zM309 504 q0 -67 8 -127l9 -4l198 391q-22 51 -80 51q-42 0 -71 -31.5t-41.5 -84t-17.5 -98.5t-5 -97zM369 240q22 -52 77 -52q36 0 62.5 25t41 67.5t21.5 91.5t7 105q0 80 -7 137h-10z" />
<glyph unicode="&#xf9;" horiz-adv-x="925" d="M86 395v606h270v-577q0 -215 101 -215q31 0 53.5 19.5t32.5 47.5q16 32 16 86v639h268v-696q0 -93 9 -305h-232l-14 106h-4q-37 -54 -98 -88t-134 -34q-140 0 -204 102t-64 309zM203 1407h229l141 -287h-165z" />
<glyph unicode="&#xfa;" horiz-adv-x="925" d="M86 395v606h270v-577q0 -215 101 -215q31 0 53.5 19.5t32.5 47.5q16 32 16 86v639h268v-696q0 -93 9 -305h-232l-14 106h-4q-37 -54 -98 -88t-134 -34q-140 0 -204 102t-64 309zM375 1120l139 287h231l-204 -287h-166z" />
<glyph unicode="&#xfb;" horiz-adv-x="925" d="M86 395v606h270v-577q0 -215 101 -215q31 0 53.5 19.5t32.5 47.5q16 32 16 86v639h268v-696q0 -93 9 -305h-232l-14 106h-4q-37 -54 -98 -88t-134 -34q-140 0 -204 102t-64 309zM225 1120l168 287h135l174 -287h-159l-80 156h-4l-80 -156h-154z" />
<glyph unicode="&#xfc;" horiz-adv-x="925" d="M86 395v606h270v-577q0 -215 101 -215q31 0 53.5 19.5t32.5 47.5q16 32 16 86v639h268v-696q0 -93 9 -305h-232l-14 106h-4q-37 -54 -98 -88t-134 -34q-140 0 -204 102t-64 309zM172 1257q0 55 35.5 91t85.5 36q52 0 85.5 -35.5t33.5 -91.5q0 -55 -34 -91t-85 -36h-2 q-50 0 -84.5 36t-34.5 91zM526 1257q0 54 35.5 90.5t83.5 36.5q52 0 85.5 -35.5t33.5 -91.5t-33.5 -91.5t-85.5 -35.5h-2q-48 0 -82.5 36t-34.5 91z" />
<glyph unicode="&#xfd;" horiz-adv-x="800" d="M10 1001h289l98 -520q15 -89 27 -168h4q16 100 25 164l84 524h262l-205 -772q-94 -359 -223 -512q-56 -65 -120.5 -104.5t-107.5 -52.5l-82 231q66 22 134 84q57 54 84 119q14 31 14 43q0 13 -8 37zM313 1120l142 287h231l-207 -287h-166z" />
<glyph unicode="&#xfe;" horiz-adv-x="915" d="M92 -393v1767h266v-493h4q64 137 199 137q74 0 132 -41.5t93 -113.5t52.5 -163.5t17.5 -197.5q0 -128 -26.5 -229.5t-71 -163t-98 -93.5t-111.5 -32q-68 0 -114.5 31t-69.5 77h-5v-485h-268zM360 369q0 -62 17 -93q26 -73 82 -73q67 0 98 82.5t31 214.5 q0 138 -32.5 215.5t-90.5 77.5q-30 0 -54.5 -23t-35.5 -57q-15 -35 -15 -76v-268z" />
<glyph unicode="&#xff;" horiz-adv-x="800" d="M10 1001h289l98 -520q15 -89 27 -168h4q16 100 25 164l84 524h262l-205 -772q-94 -359 -223 -512q-56 -65 -120.5 -104.5t-107.5 -52.5l-82 231q66 22 134 84q57 54 84 119q14 31 14 43q0 13 -8 37zM111 1257q0 55 35 91t85 36q52 0 85.5 -35.5t33.5 -91.5q0 -55 -34 -91 t-85 -36h-2q-50 0 -84 36t-34 91zM465 1257q0 54 35.5 90.5t83.5 36.5q51 0 84.5 -35t33.5 -92q0 -56 -33 -91.5t-85 -35.5h-2q-48 0 -82.5 36t-34.5 91z" />
<glyph unicode="&#x152;" horiz-adv-x="1331" d="M51 690q0 117 18.5 220t59.5 193t101.5 155t148 102t194.5 37q37 0 91 -8q65 -9 75 -9h504v-233h-332v-318h316v-223h-316v-373h357v-233h-539q-32 0 -82 -8q-58 -8 -86 -8q-118 0 -209 40.5t-147 106t-91.5 159.5t-49 190.5t-13.5 209.5zM330 698q-1 -245 62 -363 t171 -118q54 0 80 16v910q-33 20 -86 20q-97 0 -162 -116t-65 -349z" />
<glyph unicode="&#x153;" horiz-adv-x="1361" d="M59 498q0 130 32 231.5t86.5 163.5t122 93.5t142.5 31.5q84 0 152 -41t106 -127h5q103 168 280 168q151 0 237.5 -126t86.5 -347q0 -60 -6 -129h-480q7 -121 65 -174.5t150 -53.5t193 33l35 -182q-98 -55 -265 -55q-219 0 -305 170h-4q-40 -84 -116 -127t-156 -43 q-163 0 -262 136t-99 378zM326 500q0 -312 120 -312q37 0 61.5 26t36.5 74.5t16.5 99.5t4.5 118q0 309 -119 309h-2q-118 0 -118 -315zM825 590h236q2 103 -24.5 166t-80.5 63q-63 0 -96 -69.5t-35 -159.5z" />
<glyph unicode="&#x178;" horiz-adv-x="823" d="M-31 1380h287l94 -329q47 -165 72 -293h4q22 140 63 299l82 323h279l-309 -841v-539h-269v528zM139 1585q0 53 34.5 89t80.5 36q48 0 81.5 -36t33.5 -89q0 -51 -34 -87t-81 -36h-2q-45 0 -79 36.5t-34 86.5zM485 1585q0 53 34.5 89t80.5 36q48 0 81.5 -36t33.5 -89 q0 -51 -34 -87t-81 -36h-2q-45 0 -79 36.5t-34 86.5z" />
<glyph unicode="&#x2c6;" horiz-adv-x="614" d="M68 1120l168 287h135l176 -287h-162l-80 156h-4l-80 -156h-153z" />
<glyph unicode="&#x2dc;" horiz-adv-x="614" d="M68 1145q-2 90 33 154.5t104 64.5q19 0 37.5 -5t29.5 -10t28 -14t22 -12q7 -4 24 -14t28 -14.5t21 -4.5q24 0 36.5 16.5t12.5 63.5h105q0 -104 -35 -158.5t-98 -54.5q-38 0 -109 37q-61 35 -86 35q-44 0 -47 -84h-106z" />
<glyph unicode="&#x2000;" horiz-adv-x="855" />
<glyph unicode="&#x2001;" horiz-adv-x="1710" />
<glyph unicode="&#x2002;" horiz-adv-x="855" />
<glyph unicode="&#x2003;" horiz-adv-x="1710" />
<glyph unicode="&#x2004;" horiz-adv-x="570" />
<glyph unicode="&#x2005;" horiz-adv-x="427" />
<glyph unicode="&#x2006;" horiz-adv-x="285" />
<glyph unicode="&#x2007;" horiz-adv-x="285" />
<glyph unicode="&#x2008;" horiz-adv-x="213" />
<glyph unicode="&#x2009;" horiz-adv-x="342" />
<glyph unicode="&#x200a;" horiz-adv-x="95" />
<glyph unicode="&#x2010;" horiz-adv-x="530" d="M61 469v193h408v-193h-408z" />
<glyph unicode="&#x2011;" horiz-adv-x="530" d="M61 469v193h408v-193h-408z" />
<glyph unicode="&#x2012;" horiz-adv-x="530" d="M61 469v193h408v-193h-408z" />
<glyph unicode="&#x2013;" horiz-adv-x="1024" d="M61 440v185h902v-185h-902z" />
<glyph unicode="&#x2014;" horiz-adv-x="2048" d="M61 440v185h1926v-185h-1926z" />
<glyph unicode="&#x2018;" horiz-adv-x="389" d="M16 866q75 251 230 516l139 19q-108 -312 -137 -514z" />
<glyph unicode="&#x2019;" horiz-adv-x="389" d="M8 866q109 314 137 514l232 21q-82 -266 -232 -516z" />
<glyph unicode="&#x201a;" horiz-adv-x="389" d="M8 -223q109 314 137 512l232 20q-81 -262 -232 -514z" />
<glyph unicode="&#x201c;" horiz-adv-x="690" d="M8 866q75 251 230 516l139 19q-108 -312 -137 -514zM326 866q84 270 231 516l137 19q-107 -319 -137 -514z" />
<glyph unicode="&#x201d;" horiz-adv-x="690" d="M0 866q109 314 137 514l232 21q-75 -251 -230 -516zM317 866q111 319 138 514l231 21q-80 -267 -229 -516z" />
<glyph unicode="&#x201e;" horiz-adv-x="690" d="M0 -223q109 314 137 512l232 20q-74 -247 -230 -514zM317 -223q111 318 138 512l231 20q-78 -263 -229 -514z" />
<glyph unicode="&#x2022;" horiz-adv-x="587" d="M78 698q0 101 61.5 163.5t155.5 62.5q92 0 153.5 -61.5t61.5 -164.5q0 -100 -60.5 -160.5t-156.5 -60.5h-2q-91 0 -152 61.5t-61 159.5z" />
<glyph unicode="&#x2026;" horiz-adv-x="2048" d="M184 162q0 75 47 126.5t111 51.5q67 0 111.5 -48.5t44.5 -129.5t-43.5 -129.5t-114.5 -48.5h-2q-64 0 -109 49.5t-45 128.5zM866 162q0 75 47 126.5t111 51.5q67 0 111.5 -48.5t44.5 -129.5t-43.5 -129.5t-114.5 -48.5h-2q-65 0 -109.5 49t-44.5 129zM1548 162 q0 75 47 126.5t111 51.5q67 0 111.5 -48.5t44.5 -129.5t-43.5 -129.5t-114.5 -48.5h-2q-65 0 -109.5 49t-44.5 129z" />
<glyph unicode="&#x202f;" horiz-adv-x="342" />
<glyph unicode="&#x2039;" horiz-adv-x="452" d="M33 516l215 379h194l-221 -379l221 -379h-194z" />
<glyph unicode="&#x203a;" horiz-adv-x="452" d="M10 137l221 379l-221 379h193l217 -379l-215 -379h-195z" />
<glyph unicode="&#x205f;" horiz-adv-x="427" />
<glyph unicode="&#x20ac;" d="M27 518l28 82h78q-2 18 -2 66q0 37 2 55h-106l28 82h82q22 279 116.5 412t287.5 133q184 0 256 -88l10 -168h-43q-10 77 -52 117t-110 40q-96 0 -143 -111t-58 -335h332l-31 -82h-303v-57v-64h260l-30 -82h-230q8 -214 60 -325t147 -111q61 0 103.5 38t52.5 116h45 l-10 -160q-36 -44 -94.5 -67t-161.5 -23q-189 0 -285 131.5t-115 400.5h-114z" />
<glyph unicode="&#x2122;" horiz-adv-x="1323" d="M6 1239v141h477v-141h-159v-674h-158v674h-160zM506 565l69 815h205l97 -456q6 -26 20 -133h4q18 114 23 135l106 454h189l73 -815h-153l-29 488q-1 17 -1.5 65.5t-2.5 75.5h-6q-18 -111 -27 -143l-127 -469h-119l-110 483q-5 22 -12.5 64t-12.5 65h-4q-1 -10 -6 -125 l-25 -504h-151z" />
<glyph unicode="&#xe000;" horiz-adv-x="1003" d="M0 0v1004h1004v-1004h-1004z" />
<glyph unicode="&#xfb01;" horiz-adv-x="1001" d="M6 811v190h135v54q0 43 10.5 89t41.5 99.5t78 94.5t129 68.5t186 27.5q147 0 237 -41l-39 -211q-90 32 -188 32q-186 0 -186 -176v-37h499v-1001h-270v811h-229v-811h-269v811h-135z" />
<glyph unicode="&#xfb02;" horiz-adv-x="1001" d="M6 811v190h135v39q0 67 31 151t92 138q121 105 326 105q175 0 319 -54v-1380h-270v1210q-33 13 -86 13q-73 0 -108 -48.5t-35 -121.5v-52h145v-190h-145v-811h-269v811h-135z" />
</font>
</defs>
</svg>
